<svg xmlns="http://www.w3.org/2000/svg" aria-hidden="true" style="position:absolute;width:0;height:0;overflow:hidden"><defs><symbol id="icon-phone" viewBox="0 0 32 32"><path stroke-linecap="round" stroke-linejoin="round" stroke-width="1.333" d="M26.666 21.337v3.218a2.146 2.146 0 0 1-2.338 2.145 21.239 21.239 0 0 1-9.257-3.293 20.914 20.914 0 0 1-6.436-6.436 21.221 21.221 0 0 1-3.293-9.3 2.144 2.144 0 0 1 2.134-2.338h3.218a2.144 2.144 0 0 1 2.145 1.845c.136 1.03.388 2.041.751 3.014a2.144 2.144 0 0 1-.483 2.263l-1.362 1.362a17.162 17.162 0 0 0 6.436 6.436l1.362-1.362a2.146 2.146 0 0 1 2.263-.483c.973.363 1.984.615 3.014.751a2.144 2.144 0 0 1 1.845 2.177z"/></symbol><symbol id="icon-mainlogo" viewBox="0 0 39 32">
<path d="M22.371 9.64l-0.749-0.571c-0.097-0.079-0.223-0.127-0.36-0.127-0.177 0-0.335 0.080-0.44 0.206l-0.001 0.001-10.36 11.897 0.16 0.177 2.566-2.366c-0.146-0.060-0.247-0.201-0.247-0.366 0-0.218 0.177-0.394 0.394-0.394 0.002 0 0.005 0 0.007 0h-0c0 0 0 0 0 0 0.174 0 0.321 0.114 0.371 0.272l0.001 0.003 3.383-3.137c0.050-0.040 0.113-0.065 0.183-0.065s0.133 0.024 0.183 0.065l-0.001-0 0.171 0.126c0.046 0.033 0.104 0.053 0.166 0.053 0.086 0 0.164-0.038 0.216-0.099l0-0 4.423-4.96c0.081-0.085 0.131-0.2 0.131-0.328 0-0.159-0.078-0.3-0.198-0.386l-0.001-0.001z"></path>
<path d="M27.24 12.989c-2.14 1.539-4.64 2.746-7.335 3.477l-0.162 0.037c-2.401 0.638-5.193 1.072-8.063 1.208l-0.092 0.003c0.057 0.406 0.154 0.8 0.297 1.189 1.554 1.406 13.257-0.994 15.543-3.771 0.486-0.577-0.189-2.143-0.189-2.143zM13.343 18.857c-0.214-0.001-0.388-0.174-0.388-0.389s0.174-0.389 0.389-0.389 0.389 0.174 0.389 0.389c0 0.054-0.011 0.105-0.030 0.151l0.001-0.003c-0.058 0.142-0.195 0.24-0.355 0.24-0.002 0-0.003 0-0.005-0h0zM2.286 12.166l0.091-0.394 1.486 0.337c0.12 0.229 0.2 0.474 0.223 0.731 0.008 0.076 0.013 0.165 0.013 0.255 0 0.591-0.21 1.133-0.559 1.555l0.003-0.004c-0.234 0.269-0.543 0.463-0.88 0.571-0.184 0.059-0.396 0.093-0.616 0.093-0.548 0-1.047-0.211-1.419-0.557l0.001 0.001c-0.256-0.236-0.445-0.54-0.54-0.884l-0.003-0.013c-0.049-0.171-0.077-0.368-0.077-0.571s0.028-0.4 0.081-0.587l-0.004 0.015c0.057-0.28 0.171-0.549 0.326-0.789 0.149-0.217 0.343-0.4 0.571-0.531l0.206 0.314c-0.391 0.243-0.669 0.637-0.753 1.099l-0.002 0.010c-0.069 0.297-0.063 0.606 0.017 0.897 0.074 0.28 0.229 0.531 0.44 0.726 0.217 0.211 0.486 0.354 0.783 0.417 0.286 0.080 0.589 0.080 0.874 0 0.569-0.195 0.994-0.671 1.112-1.258l0.002-0.011c0.091-0.36 0.069-0.743-0.069-1.091l-1.309-0.331zM5.52 8.571l-1.331 1.777 0.571 1.023-0.263 0.354-2.114-3.857 0.246-0.337 4.303 0.926-0.269 0.354-1.143-0.24zM5.143 8.48l-2.286-0.514 1.143 2.051 1.143-1.537zM5.143 4.886l0.343-0.257 2.177 2.914 1.794-1.343 0.217 0.291-2.131 1.594-2.4-3.2zM8.743 2.503l0.383-0.171 1.509 3.303 2.040-0.926 0.149 0.331-2.423 1.103-1.657-3.64zM16.274 3.817l0.086 0.36-2.754 0.646-0.914-3.897 2.674-0.623 0.080 0.354-2.286 0.531 0.326 1.383 2.011-0.474 0.086 0.354-2.017 0.469 0.343 1.446 2.366-0.549zM20.2 3.96l-0.954-1.257c-0.109 0.006-0.211 0.006-0.32 0l-1.074 0.034 0.040 1.269h-0.423l-0.131-4 1.52-0.006c0.429-0.040 0.857 0.074 1.211 0.326 0.287 0.232 0.469 0.585 0.469 0.979 0 0.005-0 0.011-0 0.016v-0.001c0.017 0.286-0.057 0.56-0.211 0.8-0.166 0.229-0.4 0.4-0.663 0.486l1 1.337-0.463 0.017zM19.8 2.080c0.181-0.167 0.295-0.405 0.295-0.67 0-0.028-0.001-0.055-0.004-0.082l0 0.004c0-0.006 0-0.013 0-0.019 0-0.286-0.131-0.542-0.336-0.711l-0.002-0.001c-0.218-0.15-0.488-0.239-0.779-0.239-0.041 0-0.083 0.002-0.123 0.005l0.005-0-1.086 0.040 0.069 2 1.063-0.034c0.015 0.001 0.033 0.001 0.051 0.001 0.321 0 0.616-0.11 0.849-0.295l-0.003 0.002zM23.223 2.897l-0.206 1.366-0.417-0.063 0.211-1.343-1.183-2.857 0.446 0.069 1.011 2.434 1.714-2.017 0.4 0.086-1.977 2.326zM28.874 2.657l0.497 0.646-0.217 0.171-0.497-0.663-0.314 0.749-0.24-0.103 0.32-0.749-0.823 0.109v-0.274l0.811-0.091-0.503-0.646 0.223-0.171 0.44 0.651 0.309-0.754 0.246 0.103-0.291 0.766 0.823-0.114v0.28l-0.783 0.091zM30.783 7.263c-0.129-0.197-0.217-0.431-0.245-0.684l-0.001-0.007 0.337-0.149c0.023 0.229 0.097 0.446 0.217 0.64 0.126 0.217 0.291 0.411 0.491 0.571 0.206 0.194 0.463 0.32 0.743 0.36 0.019 0.002 0.041 0.003 0.063 0.003 0.265 0 0.491-0.166 0.581-0.399l0.001-0.004c0.016-0.048 0.025-0.103 0.025-0.16 0-0.018-0.001-0.036-0.003-0.054l0 0.002c-0.021-0.148-0.069-0.281-0.14-0.399l0.003 0.005c-0.109-0.171-0.229-0.343-0.349-0.509-0.154-0.2-0.286-0.411-0.411-0.629-0.089-0.154-0.144-0.339-0.149-0.536l-0-0.001c0-0.211 0.080-0.417 0.223-0.571 0.126-0.149 0.286-0.263 0.474-0.326 0.095-0.029 0.204-0.045 0.317-0.045s0.222 0.016 0.325 0.047l-0.008-0.002c0.489 0.187 0.893 0.503 1.183 0.907l0.005 0.008c0.12 0.171 0.211 0.366 0.269 0.571l-0.326 0.171c-0.057-0.189-0.143-0.371-0.251-0.537-0.114-0.149-0.24-0.286-0.383-0.394-0.2-0.194-0.457-0.314-0.737-0.349-0.015-0.001-0.033-0.002-0.051-0.002-0.197 0-0.372 0.092-0.485 0.235l-0.001 0.001c-0.083 0.088-0.134 0.207-0.134 0.337 0 0.018 0.001 0.036 0.003 0.053l-0-0.002c0.011 0.143 0.057 0.286 0.137 0.406 0.080 0.131 0.194 0.303 0.349 0.509 0.154 0.194 0.286 0.4 0.411 0.617 0.091 0.154 0.148 0.338 0.154 0.535l0 0.002c0 0.211-0.080 0.417-0.223 0.571-0.126 0.154-0.291 0.269-0.48 0.326-0.206 0.057-0.429 0.057-0.634 0-0.282-0.093-0.526-0.233-0.734-0.414l0.003 0.002c-0.229-0.2-0.423-0.44-0.571-0.709zM36.531 8.097l-0.806-1.143 0.297-0.211 1.857 2.651-0.297 0.211-0.806-1.143-2.983 2.086-0.24-0.349 2.977-2.103zM35.251 12.794c0.225-0.69 0.792-1.209 1.495-1.363l0.013-0.002c0.139-0.033 0.299-0.052 0.463-0.052 0.218 0 0.429 0.034 0.626 0.096l-0.015-0.004c0.7 0.238 1.222 0.828 1.358 1.553l0.002 0.013c0.097 0.36 0.097 0.743 0 1.103-0.103 0.343-0.303 0.651-0.571 0.891-0.373 0.335-0.87 0.54-1.414 0.54-0.224 0-0.439-0.035-0.641-0.099l0.015 0.004c-0.35-0.111-0.646-0.309-0.872-0.569l-0.002-0.002c-0.237-0.271-0.407-0.606-0.483-0.975l-0.002-0.014c-0.037-0.152-0.059-0.326-0.059-0.506 0-0.219 0.032-0.43 0.091-0.63l-0.004 0.016zM36 14.611c0.189 0.217 0.44 0.377 0.714 0.463 0.148 0.044 0.318 0.070 0.493 0.070 0.446 0 0.854-0.165 1.166-0.438l-0.002 0.002c0.324-0.298 0.525-0.723 0.525-1.196 0-0.144-0.019-0.283-0.054-0.416l0.003 0.011c-0.069-0.307-0.207-0.575-0.396-0.797l0.002 0.003c-0.2-0.217-0.457-0.377-0.737-0.463-0.132-0.036-0.284-0.057-0.44-0.057s-0.308 0.021-0.452 0.060l0.012-0.003c-0.59 0.116-1.057 0.545-1.226 1.103l-0.003 0.011c-0.037 0.133-0.058 0.285-0.058 0.443s0.021 0.31 0.061 0.455l-0.003-0.012c0.057 0.286 0.2 0.543 0.394 0.76zM34.817 19.429l1.48-0.571c0-0.103 0.034-0.206 0.063-0.314l0.28-1.034-1.211-0.314 0.109-0.406 3.863 1.034-0.389 1.446c-0.086 0.423-0.32 0.8-0.663 1.063-0.196 0.138-0.441 0.221-0.704 0.221-0.136 0-0.268-0.022-0.39-0.063l0.009 0.003c-0.561-0.125-0.974-0.617-0.977-1.205v-0l-1.577 0.571 0.109-0.429zM36.731 19.589c0.179 0.32 0.515 0.532 0.901 0.532 0.197 0 0.381-0.055 0.538-0.152l-0.004 0.003c0.251-0.2 0.423-0.486 0.486-0.806l0.274-1.029-1.937-0.52-0.274 1.029c-0.103 0.309-0.097 0.64 0.017 0.943zM32.766 23.109l-0.291-0.223 1.714-2.257 3.189 2.417-1.657 2.189-0.291-0.223 1.4-1.846-1.143-0.863-1.251 1.651-0.286-0.217 1.28-1.651-1.183-0.897-1.48 1.92zM31.429 27.663l-0.817 0.046v-0.274l0.817-0.006-0.44-0.68 0.223-0.143 0.434 0.686 0.354-0.766 0.246 0.131-0.389 0.72 0.817-0.046v0.28h-0.829l0.44 0.68-0.223 0.143-0.434-0.686-0.377 0.743-0.24-0.137 0.417-0.691zM24 27.206l0.691 0.383c0.235-0.446 0.642-0.774 1.131-0.9l0.012-0.003c0.229-0.069 0.469-0.097 0.703-0.074 0.216 0.017 0.411 0.092 0.575 0.208l-0.003-0.002c0.154 0.114 0.263 0.274 0.32 0.457 0.069 0.229 0.057 0.469-0.034 0.686-0.151 0.307-0.342 0.57-0.571 0.794l-0 0c0.189 0.103 0.366 0.229 0.52 0.371 0.109 0.114 0.189 0.246 0.234 0.394 0.015 0.056 0.023 0.121 0.023 0.187 0 0.183-0.065 0.352-0.173 0.483l0.001-0.001c-0.154 0.217-0.383 0.377-0.64 0.44-0.229 0.086-0.48 0.086-0.709 0-0.204-0.089-0.356-0.266-0.41-0.481l-0.001-0.005c-0.057-0.189-0.046-0.394 0.040-0.571 0.131-0.257 0.303-0.497 0.509-0.703l-1.377-0.766c-0.057 0.269-0.063 0.543-0.034 0.817h-0.349c-0.023-0.337 0.017-0.674 0.114-0.994l-0.72-0.4 0.149-0.32zM24.994 27.777l1.514 0.84c0.2-0.189 0.36-0.411 0.486-0.657 0.063-0.166 0.063-0.349 0-0.514-0.054-0.202-0.203-0.361-0.396-0.427l-0.004-0.001c-0.109-0.038-0.235-0.060-0.366-0.060s-0.257 0.022-0.374 0.063l0.008-0.002c-0.398 0.107-0.717 0.378-0.888 0.735l-0.004 0.008 0.023 0.017zM27.143 30.063c0.045-0.075 0.072-0.165 0.072-0.262 0-0.058-0.009-0.113-0.027-0.165l0.001 0.004c-0.034-0.114-0.097-0.217-0.183-0.297-0.143-0.12-0.303-0.229-0.474-0.314-0.171 0.171-0.326 0.366-0.451 0.571-0.042 0.078-0.067 0.17-0.067 0.268 0 0.055 0.008 0.108 0.022 0.158l-0.001-0.004c0.038 0.134 0.129 0.242 0.249 0.302l0.003 0.001c0.143 0.057 0.309 0.057 0.451 0 0.154-0.040 0.286-0.137 0.383-0.269l0.023 0.006zM17.034 31.611l0.080-4h0.406l-0.063 3.2 1.623-2.663h0.2l1.52 2.709 0.057-3.183h0.406l-0.074 4h-0.349l-1.68-2.989-1.777 2.931-0.349-0.006zM15.046 27.429c0.373 0.356 0.604 0.856 0.604 1.411 0 0.202-0.031 0.397-0.088 0.58l0.004-0.014c-0.091 0.354-0.286 0.674-0.543 0.931-0.251 0.251-0.571 0.423-0.92 0.503-0.366 0.080-0.743 0.069-1.109-0.034-0.375-0.093-0.699-0.275-0.961-0.521l0.001 0.001c-0.251-0.24-0.436-0.546-0.528-0.889l-0.003-0.013c-0.037-0.148-0.058-0.318-0.058-0.493 0-0.96 0.64-1.771 1.518-2.029l0.015-0.004c0.366-0.080 0.743-0.069 1.103 0.034 0.366 0.091 0.697 0.28 0.966 0.537zM13.097 27.229c-0.28 0.063-0.537 0.206-0.737 0.411-0.211 0.211-0.36 0.474-0.434 0.76-0.080 0.286-0.080 0.589 0 0.874 0.069 0.28 0.211 0.531 0.417 0.731 0.315 0.306 0.746 0.495 1.221 0.495 0.155 0 0.305-0.020 0.448-0.058l-0.012 0.003c0.579-0.149 1.026-0.594 1.175-1.16l0.003-0.011c0.039-0.134 0.061-0.287 0.061-0.445 0-0.773-0.532-1.421-1.25-1.598l-0.011-0.002c-0.132-0.038-0.283-0.060-0.44-0.060s-0.308 0.022-0.452 0.063l0.012-0.003zM8.771 24.571l0.154 1.571c0.097 0.040 0.194 0.091 0.286 0.143l0.931 0.537 0.629-1.109 0.371 0.211-2 3.446-1.303-0.749c-0.383-0.194-0.686-0.514-0.857-0.914-0.044-0.123-0.070-0.265-0.070-0.413 0-0.25 0.073-0.482 0.198-0.678l-0.003 0.005c0.131-0.251 0.343-0.451 0.6-0.571 0.263-0.109 0.549-0.131 0.823-0.063l-0.166-1.68 0.406 0.263zM8.12 26.377c-0.451 0.116-0.778 0.518-0.778 0.998 0 0.103 0.015 0.202 0.043 0.295l-0.002-0.007c0.131 0.297 0.366 0.537 0.657 0.68l0.92 0.531 1-1.714-0.92-0.531c-0.233-0.176-0.527-0.282-0.846-0.282-0.026 0-0.052 0.001-0.077 0.002l0.004-0v0.029zM5.389 21.891l0.257-0.257 1.971 2.029-2.857 2.789-1.903-1.966 0.263-0.257 1.617 1.663 0.977-0.989-1.417-1.474 0.274-0.263 1.446 1.486 1.063-1.034-1.691-1.726zM1.143 19.646l0.137-0.789 0.269 0.040-0.154 0.811 0.76-0.28 0.091 0.251-0.771 0.263 0.634 0.537-0.183 0.206-0.611-0.571-0.143 0.811-0.274-0.051 0.16-0.811-0.766 0.274-0.086-0.223 0.766-0.269-0.634-0.531 0.189-0.206 0.617 0.537z"></path>
</symbol><symbol id="icon-burgermenu" viewBox="0 0 47 32">
<path stroke-linejoin="round" stroke-linecap="round" stroke-miterlimit="4" stroke-width="4.3636" d="M1.891 29.091h43.2M1.891 15.564h43.2M1.891 2.036h43.2"></path>
</symbol><symbol id="icon-logo" viewBox="0 0 39 32">
<path d="M22.371 9.64l-0.749-0.571c-0.097-0.079-0.223-0.127-0.36-0.127-0.177 0-0.335 0.080-0.44 0.206l-0.001 0.001-10.36 11.897 0.16 0.177 2.566-2.366c-0.146-0.060-0.247-0.201-0.247-0.366 0-0.218 0.177-0.394 0.394-0.394 0.002 0 0.005 0 0.007 0h-0c0 0 0 0 0 0 0.174 0 0.321 0.114 0.371 0.272l0.001 0.003 3.383-3.137c0.050-0.040 0.113-0.065 0.183-0.065s0.133 0.024 0.183 0.065l-0.001-0 0.171 0.126c0.046 0.033 0.104 0.053 0.166 0.053 0.086 0 0.164-0.038 0.216-0.099l0-0 4.423-4.96c0.081-0.085 0.131-0.2 0.131-0.328 0-0.159-0.078-0.3-0.198-0.386l-0.001-0.001z"></path>
<path d="M27.24 12.989c-2.14 1.539-4.64 2.746-7.335 3.477l-0.162 0.037c-2.401 0.638-5.193 1.072-8.063 1.208l-0.092 0.003c0.057 0.406 0.154 0.8 0.297 1.189 1.554 1.406 13.257-0.994 15.543-3.771 0.486-0.577-0.189-2.143-0.189-2.143zM13.343 18.857c-0.214-0.001-0.388-0.174-0.388-0.389s0.174-0.389 0.389-0.389 0.389 0.174 0.389 0.389c0 0.054-0.011 0.105-0.030 0.151l0.001-0.003c-0.058 0.142-0.195 0.24-0.355 0.24-0.002 0-0.003 0-0.005-0h0zM2.286 12.166l0.091-0.394 1.486 0.337c0.12 0.229 0.2 0.474 0.223 0.731 0.008 0.076 0.013 0.165 0.013 0.255 0 0.591-0.21 1.133-0.559 1.555l0.003-0.004c-0.234 0.269-0.543 0.463-0.88 0.571-0.184 0.059-0.396 0.093-0.616 0.093-0.548 0-1.047-0.211-1.419-0.557l0.001 0.001c-0.256-0.236-0.445-0.54-0.54-0.884l-0.003-0.013c-0.049-0.171-0.077-0.368-0.077-0.571s0.028-0.4 0.081-0.587l-0.004 0.015c0.057-0.28 0.171-0.549 0.326-0.789 0.149-0.217 0.343-0.4 0.571-0.531l0.206 0.314c-0.391 0.243-0.669 0.637-0.753 1.099l-0.002 0.010c-0.069 0.297-0.063 0.606 0.017 0.897 0.074 0.28 0.229 0.531 0.44 0.726 0.217 0.211 0.486 0.354 0.783 0.417 0.286 0.080 0.589 0.080 0.874 0 0.569-0.195 0.994-0.671 1.112-1.258l0.002-0.011c0.091-0.36 0.069-0.743-0.069-1.091l-1.309-0.331zM5.52 8.571l-1.331 1.777 0.571 1.023-0.263 0.354-2.114-3.857 0.246-0.337 4.303 0.926-0.269 0.354-1.143-0.24zM5.143 8.48l-2.286-0.514 1.143 2.051 1.143-1.537zM5.143 4.886l0.343-0.257 2.177 2.914 1.794-1.343 0.217 0.291-2.131 1.594-2.4-3.2zM8.743 2.503l0.383-0.171 1.509 3.303 2.040-0.926 0.149 0.331-2.423 1.103-1.657-3.64zM16.274 3.817l0.086 0.36-2.754 0.646-0.914-3.897 2.674-0.623 0.080 0.354-2.286 0.531 0.326 1.383 2.011-0.474 0.086 0.354-2.017 0.469 0.343 1.446 2.366-0.549zM20.2 3.96l-0.954-1.257c-0.109 0.006-0.211 0.006-0.32 0l-1.074 0.034 0.040 1.269h-0.423l-0.131-4 1.52-0.006c0.429-0.040 0.857 0.074 1.211 0.326 0.287 0.232 0.469 0.585 0.469 0.979 0 0.005-0 0.011-0 0.016v-0.001c0.017 0.286-0.057 0.56-0.211 0.8-0.166 0.229-0.4 0.4-0.663 0.486l1 1.337-0.463 0.017zM19.8 2.080c0.181-0.167 0.295-0.405 0.295-0.67 0-0.028-0.001-0.055-0.004-0.082l0 0.004c0-0.006 0-0.013 0-0.019 0-0.286-0.131-0.542-0.336-0.711l-0.002-0.001c-0.218-0.15-0.488-0.239-0.779-0.239-0.041 0-0.083 0.002-0.123 0.005l0.005-0-1.086 0.040 0.069 2 1.063-0.034c0.015 0.001 0.033 0.001 0.051 0.001 0.321 0 0.616-0.11 0.849-0.295l-0.003 0.002zM23.223 2.897l-0.206 1.366-0.417-0.063 0.211-1.343-1.183-2.857 0.446 0.069 1.011 2.434 1.714-2.017 0.4 0.086-1.977 2.326zM28.874 2.657l0.497 0.646-0.217 0.171-0.497-0.663-0.314 0.749-0.24-0.103 0.32-0.749-0.823 0.109v-0.274l0.811-0.091-0.503-0.646 0.223-0.171 0.44 0.651 0.309-0.754 0.246 0.103-0.291 0.766 0.823-0.114v0.28l-0.783 0.091zM30.783 7.263c-0.129-0.197-0.217-0.431-0.245-0.684l-0.001-0.007 0.337-0.149c0.023 0.229 0.097 0.446 0.217 0.64 0.126 0.217 0.291 0.411 0.491 0.571 0.206 0.194 0.463 0.32 0.743 0.36 0.019 0.002 0.041 0.003 0.063 0.003 0.265 0 0.491-0.166 0.581-0.399l0.001-0.004c0.016-0.048 0.025-0.103 0.025-0.16 0-0.018-0.001-0.036-0.003-0.054l0 0.002c-0.021-0.148-0.069-0.281-0.14-0.399l0.003 0.005c-0.109-0.171-0.229-0.343-0.349-0.509-0.154-0.2-0.286-0.411-0.411-0.629-0.089-0.154-0.144-0.339-0.149-0.536l-0-0.001c0-0.211 0.080-0.417 0.223-0.571 0.126-0.149 0.286-0.263 0.474-0.326 0.095-0.029 0.204-0.045 0.317-0.045s0.222 0.016 0.325 0.047l-0.008-0.002c0.489 0.187 0.893 0.503 1.183 0.907l0.005 0.008c0.12 0.171 0.211 0.366 0.269 0.571l-0.326 0.171c-0.057-0.189-0.143-0.371-0.251-0.537-0.114-0.149-0.24-0.286-0.383-0.394-0.2-0.194-0.457-0.314-0.737-0.349-0.015-0.001-0.033-0.002-0.051-0.002-0.197 0-0.372 0.092-0.485 0.235l-0.001 0.001c-0.083 0.088-0.134 0.207-0.134 0.337 0 0.018 0.001 0.036 0.003 0.053l-0-0.002c0.011 0.143 0.057 0.286 0.137 0.406 0.080 0.131 0.194 0.303 0.349 0.509 0.154 0.194 0.286 0.4 0.411 0.617 0.091 0.154 0.148 0.338 0.154 0.535l0 0.002c0 0.211-0.080 0.417-0.223 0.571-0.126 0.154-0.291 0.269-0.48 0.326-0.206 0.057-0.429 0.057-0.634 0-0.282-0.093-0.526-0.233-0.734-0.414l0.003 0.002c-0.229-0.2-0.423-0.44-0.571-0.709zM36.531 8.097l-0.806-1.143 0.297-0.211 1.857 2.651-0.297 0.211-0.806-1.143-2.983 2.086-0.24-0.349 2.977-2.103zM35.251 12.794c0.225-0.69 0.792-1.209 1.495-1.363l0.013-0.002c0.139-0.033 0.299-0.052 0.463-0.052 0.218 0 0.429 0.034 0.626 0.096l-0.015-0.004c0.7 0.238 1.222 0.828 1.358 1.553l0.002 0.013c0.097 0.36 0.097 0.743 0 1.103-0.103 0.343-0.303 0.651-0.571 0.891-0.373 0.335-0.87 0.54-1.414 0.54-0.224 0-0.439-0.035-0.641-0.099l0.015 0.004c-0.35-0.111-0.646-0.309-0.872-0.569l-0.002-0.002c-0.237-0.271-0.407-0.606-0.483-0.975l-0.002-0.014c-0.037-0.152-0.059-0.326-0.059-0.506 0-0.219 0.032-0.43 0.091-0.63l-0.004 0.016zM36 14.611c0.189 0.217 0.44 0.377 0.714 0.463 0.148 0.044 0.318 0.070 0.493 0.070 0.446 0 0.854-0.165 1.166-0.438l-0.002 0.002c0.324-0.298 0.525-0.723 0.525-1.196 0-0.144-0.019-0.283-0.054-0.416l0.003 0.011c-0.069-0.307-0.207-0.575-0.396-0.797l0.002 0.003c-0.2-0.217-0.457-0.377-0.737-0.463-0.132-0.036-0.284-0.057-0.44-0.057s-0.308 0.021-0.452 0.060l0.012-0.003c-0.59 0.116-1.057 0.545-1.226 1.103l-0.003 0.011c-0.037 0.133-0.058 0.285-0.058 0.443s0.021 0.31 0.061 0.455l-0.003-0.012c0.057 0.286 0.2 0.543 0.394 0.76zM34.817 19.429l1.48-0.571c0-0.103 0.034-0.206 0.063-0.314l0.28-1.034-1.211-0.314 0.109-0.406 3.863 1.034-0.389 1.446c-0.086 0.423-0.32 0.8-0.663 1.063-0.196 0.138-0.441 0.221-0.704 0.221-0.136 0-0.268-0.022-0.39-0.063l0.009 0.003c-0.561-0.125-0.974-0.617-0.977-1.205v-0l-1.577 0.571 0.109-0.429zM36.731 19.589c0.179 0.32 0.515 0.532 0.901 0.532 0.197 0 0.381-0.055 0.538-0.152l-0.004 0.003c0.251-0.2 0.423-0.486 0.486-0.806l0.274-1.029-1.937-0.52-0.274 1.029c-0.103 0.309-0.097 0.64 0.017 0.943zM32.766 23.109l-0.291-0.223 1.714-2.257 3.189 2.417-1.657 2.189-0.291-0.223 1.4-1.846-1.143-0.863-1.251 1.651-0.286-0.217 1.28-1.651-1.183-0.897-1.48 1.92zM31.429 27.663l-0.817 0.046v-0.274l0.817-0.006-0.44-0.68 0.223-0.143 0.434 0.686 0.354-0.766 0.246 0.131-0.389 0.72 0.817-0.046v0.28h-0.829l0.44 0.68-0.223 0.143-0.434-0.686-0.377 0.743-0.24-0.137 0.417-0.691zM24 27.206l0.691 0.383c0.235-0.446 0.642-0.774 1.131-0.9l0.012-0.003c0.229-0.069 0.469-0.097 0.703-0.074 0.216 0.017 0.411 0.092 0.575 0.208l-0.003-0.002c0.154 0.114 0.263 0.274 0.32 0.457 0.069 0.229 0.057 0.469-0.034 0.686-0.151 0.307-0.342 0.57-0.571 0.794l-0 0c0.189 0.103 0.366 0.229 0.52 0.371 0.109 0.114 0.189 0.246 0.234 0.394 0.015 0.056 0.023 0.121 0.023 0.187 0 0.183-0.065 0.352-0.173 0.483l0.001-0.001c-0.154 0.217-0.383 0.377-0.64 0.44-0.229 0.086-0.48 0.086-0.709 0-0.204-0.089-0.356-0.266-0.41-0.481l-0.001-0.005c-0.057-0.189-0.046-0.394 0.040-0.571 0.131-0.257 0.303-0.497 0.509-0.703l-1.377-0.766c-0.057 0.269-0.063 0.543-0.034 0.817h-0.349c-0.023-0.337 0.017-0.674 0.114-0.994l-0.72-0.4 0.149-0.32zM24.994 27.777l1.514 0.84c0.2-0.189 0.36-0.411 0.486-0.657 0.063-0.166 0.063-0.349 0-0.514-0.054-0.202-0.203-0.361-0.396-0.427l-0.004-0.001c-0.109-0.038-0.235-0.060-0.366-0.060s-0.257 0.022-0.374 0.063l0.008-0.002c-0.398 0.107-0.717 0.378-0.888 0.735l-0.004 0.008 0.023 0.017zM27.143 30.063c0.045-0.075 0.072-0.165 0.072-0.262 0-0.058-0.009-0.113-0.027-0.165l0.001 0.004c-0.034-0.114-0.097-0.217-0.183-0.297-0.143-0.12-0.303-0.229-0.474-0.314-0.171 0.171-0.326 0.366-0.451 0.571-0.042 0.078-0.067 0.17-0.067 0.268 0 0.055 0.008 0.108 0.022 0.158l-0.001-0.004c0.038 0.134 0.129 0.242 0.249 0.302l0.003 0.001c0.143 0.057 0.309 0.057 0.451 0 0.154-0.040 0.286-0.137 0.383-0.269l0.023 0.006zM17.034 31.611l0.080-4h0.406l-0.063 3.2 1.623-2.663h0.2l1.52 2.709 0.057-3.183h0.406l-0.074 4h-0.349l-1.68-2.989-1.777 2.931-0.349-0.006zM15.046 27.429c0.373 0.356 0.604 0.856 0.604 1.411 0 0.202-0.031 0.397-0.088 0.58l0.004-0.014c-0.091 0.354-0.286 0.674-0.543 0.931-0.251 0.251-0.571 0.423-0.92 0.503-0.366 0.080-0.743 0.069-1.109-0.034-0.375-0.093-0.699-0.275-0.961-0.521l0.001 0.001c-0.251-0.24-0.436-0.546-0.528-0.889l-0.003-0.013c-0.037-0.148-0.058-0.318-0.058-0.493 0-0.96 0.64-1.771 1.518-2.029l0.015-0.004c0.366-0.080 0.743-0.069 1.103 0.034 0.366 0.091 0.697 0.28 0.966 0.537zM13.097 27.229c-0.28 0.063-0.537 0.206-0.737 0.411-0.211 0.211-0.36 0.474-0.434 0.76-0.080 0.286-0.080 0.589 0 0.874 0.069 0.28 0.211 0.531 0.417 0.731 0.315 0.306 0.746 0.495 1.221 0.495 0.155 0 0.305-0.020 0.448-0.058l-0.012 0.003c0.579-0.149 1.026-0.594 1.175-1.16l0.003-0.011c0.039-0.134 0.061-0.287 0.061-0.445 0-0.773-0.532-1.421-1.25-1.598l-0.011-0.002c-0.132-0.038-0.283-0.060-0.44-0.060s-0.308 0.022-0.452 0.063l0.012-0.003zM8.771 24.571l0.154 1.571c0.097 0.040 0.194 0.091 0.286 0.143l0.931 0.537 0.629-1.109 0.371 0.211-2 3.446-1.303-0.749c-0.383-0.194-0.686-0.514-0.857-0.914-0.044-0.123-0.070-0.265-0.070-0.413 0-0.25 0.073-0.482 0.198-0.678l-0.003 0.005c0.131-0.251 0.343-0.451 0.6-0.571 0.263-0.109 0.549-0.131 0.823-0.063l-0.166-1.68 0.406 0.263zM8.12 26.377c-0.451 0.116-0.778 0.518-0.778 0.998 0 0.103 0.015 0.202 0.043 0.295l-0.002-0.007c0.131 0.297 0.366 0.537 0.657 0.68l0.92 0.531 1-1.714-0.92-0.531c-0.233-0.176-0.527-0.282-0.846-0.282-0.026 0-0.052 0.001-0.077 0.002l0.004-0v0.029zM5.389 21.891l0.257-0.257 1.971 2.029-2.857 2.789-1.903-1.966 0.263-0.257 1.617 1.663 0.977-0.989-1.417-1.474 0.274-0.263 1.446 1.486 1.063-1.034-1.691-1.726zM1.143 19.646l0.137-0.789 0.269 0.040-0.154 0.811 0.76-0.28 0.091 0.251-0.771 0.263 0.634 0.537-0.183 0.206-0.611-0.571-0.143 0.811-0.274-0.051 0.16-0.811-0.766 0.274-0.086-0.223 0.766-0.269-0.634-0.531 0.189-0.206 0.617 0.537z"></path>
</symbol><symbol id="icon-close" viewBox="0 0 32 32">
<path d="M31.444 3.166l-3.166-3.166-12.564 12.547-12.547-12.547-3.166 3.166 12.547 12.547-12.547 12.581 3.166 3.166 12.547-12.564 12.564 12.564 3.166-3.166-12.564-12.564 12.564-12.547z"></path>
</symbol><symbol id="icon-mail" viewBox="0 0 32 32"><path stroke-linecap="round" stroke-linejoin="round" stroke-width="1.333" d="M6.4 6.667h19.2c1.32 0 2.4 1.05 2.4 2.333v14c0 1.283-1.08 2.333-2.4 2.333H6.4C5.08 25.333 4 24.283 4 23V9c0-1.283 1.08-2.333 2.4-2.333z"/><path stroke-linecap="round" stroke-linejoin="round" stroke-width="1.333" d="m26.667 9.333-10.667 8-10.667-8"/></symbol><symbol id="icon-map-pin" viewBox="0 0 32 32"><path stroke-linecap="round" stroke-linejoin="round" stroke-width="1.333" d="M26.667 13.818C26.667 21.454 16 28 16 28S5.333 21.455 5.333 13.818C5.333 8.396 10.109 4 16 4s10.667 4.396 10.667 9.818z"/><path stroke-linecap="round" stroke-linejoin="round" stroke-width="1.333" d="M16 18.667a4 4 0 1 0 0-8 4 4 0 0 0 0 8z"/></symbol><symbol id="icon-linkedin" viewBox="0 0 32 32"><path d="M31.992 32v-.001H32V20.263c0-5.741-1.236-10.164-7.948-10.164-3.227 0-5.392 1.771-6.276 3.449h-.093v-2.913h-6.364v21.364h6.627V21.42c0-2.785.528-5.479 3.977-5.479 3.399 0 3.449 3.179 3.449 5.657v10.401h6.62zM.528 10.636h6.635V32H.528V10.636zM3.843 0C1.722 0 0 1.721 0 3.843s1.721 3.879 3.843 3.879c2.121 0 3.843-1.757 3.843-3.879A3.846 3.846 0 0 0 3.843 0z"/></symbol><symbol id="icon-facebook" viewBox="0 0 32 32"><path d="M21.329 5.313h2.921V.225C23.746.156 22.013 0 19.994 0c-4.212 0-7.097 2.649-7.097 7.519V12H8.249v5.688h4.648V32h5.699V17.689h4.46l.708-5.688h-5.169V8.082c.001-1.644.444-2.769 2.735-2.769z"/></symbol><symbol id="icon-twitter" viewBox="0 0 32 32"><path d="M32 6.078c-1.19.522-2.458.868-3.78 1.036a6.523 6.523 0 0 0 2.886-3.626 13.11 13.11 0 0 1-4.16 1.588A6.574 6.574 0 0 0 22.154 3c-3.632 0-6.556 2.948-6.556 6.562 0 .52.044 1.02.152 1.496-5.454-.266-10.28-2.88-13.522-6.862a6.605 6.605 0 0 0-.898 3.316 6.57 6.57 0 0 0 2.914 5.452 6.479 6.479 0 0 1-2.964-.808v.072c0 3.188 2.274 5.836 5.256 6.446a6.548 6.548 0 0 1-1.72.216 5.8 5.8 0 0 1-1.242-.112c.85 2.598 3.262 4.508 6.13 4.57a13.182 13.182 0 0 1-8.134 2.798c-.538 0-1.054-.024-1.57-.09A18.469 18.469 0 0 0 10.064 29c12.072 0 18.672-10 18.672-18.668 0-.29-.01-.57-.024-.848A13.087 13.087 0 0 0 32 6.078z"/></symbol><symbol id="icon-instagram" viewBox="0 0 32 32"><path d="M31.969 9.408c-.075-1.7-.35-2.869-.744-3.882a7.803 7.803 0 0 0-1.85-2.838A7.867 7.867 0 0 0 26.543.844C25.524.45 24.361.175 22.661.1 20.948.019 20.404 0 16.06 0s-4.888.019-6.595.094c-1.7.075-2.869.35-3.882.744a7.803 7.803 0 0 0-2.838 1.85A7.867 7.867 0 0 0 .901 5.52C.507 6.539.232 7.702.157 9.402c-.081 1.713-.1 2.257-.1 6.601s.019 4.888.094 6.595c.075 1.7.35 2.869.744 3.882a7.895 7.895 0 0 0 1.85 2.838 7.867 7.867 0 0 0 2.832 1.844c1.019.394 2.182.669 3.882.744 1.706.075 2.25.094 6.595.094s4.888-.019 6.595-.094c1.7-.075 2.869-.35 3.882-.744a8.184 8.184 0 0 0 4.682-4.682c.394-1.019.669-2.182.744-3.882.075-1.707.094-2.251.094-6.595s-.006-4.888-.081-6.595zm-2.882 13.065c-.069 1.563-.331 2.407-.55 2.969a5.31 5.31 0 0 1-3.038 3.038c-.563.219-1.413.481-2.969.55-1.688.075-2.194.094-6.464.094s-4.782-.019-6.464-.094c-1.563-.069-2.407-.331-2.969-.55a4.926 4.926 0 0 1-1.838-1.194 4.974 4.974 0 0 1-1.194-1.838c-.219-.563-.481-1.413-.55-2.969-.075-1.688-.094-2.194-.094-6.464s.019-4.782.094-6.464c.069-1.563.331-2.407.55-2.969a4.868 4.868 0 0 1 1.2-1.838A4.974 4.974 0 0 1 6.639 3.55c.563-.219 1.413-.481 2.969-.55 1.688-.075 2.194-.094 6.464-.094 4.276 0 4.782.019 6.464.094 1.563.069 2.407.331 2.969.55a4.914 4.914 0 0 1 1.838 1.194 4.974 4.974 0 0 1 1.194 1.838c.219.563.481 1.413.55 2.969.075 1.688.094 2.194.094 6.464s-.019 4.77-.094 6.458z"/><path d="M16.059 7.783c-4.538 0-8.22 3.682-8.22 8.22s3.682 8.22 8.22 8.22 8.22-3.682 8.22-8.22-3.682-8.22-8.22-8.22zm0 13.553a5.333 5.333 0 0 1 0-10.664 5.333 5.333 0 0 1 0 10.664zM26.524 7.458a1.919 1.919 0 1 1-3.838 0 1.919 1.919 0 0 1 3.838 0z"/></symbol></defs></svg>